{"title":"Lukas Graham - 7 Years (2015 Pop)","uid":14073651,"size":76294737,"categoryP":"video","categoryS":"music_videos","magnet":"?xt=urn:btih:0fe386f7a0fe8e05cdf7d24d57fb110bcd08919f&amp;dn=Lukas+Graham+-+7+Years+%282015+Pop%29&amp;tr=udp%3A%2F%2Ftracker.leechers-paradise.org%3A6969&amp;tr=udp%3A%2F%2Fzer0day.ch%3A1337&amp;tr=udp%3A%2F%2Fopen.demonii.com%3A1337&amp;tr=udp%3A%2F%2Ftracker.coppersurfer.tk%3A6969&amp;tr=udp%3A%2F%2Fexodus.desync.com%3A6969","seeders":14,"leechers":0,"uploader":"MeRaDil","files":1,"time":1459194625,"description":"http://gifyu.com/images/7years.png\r\n\r\n                                    MEDIA INFO\r\nLukas Graham - 7 Years\r\nFormat                                   : MPEG-4\r\nFormat profile                           : Base Media\r\nCodec ID                                 : isom (isom/iso2/avc1/mp41)\r\nFile size                                : 72.8 MiB\r\nDuration                                 : 3mn 59s\r\nOverall bitrate                          : 2 551 Kbps\r\nMusicVid Name                            : 7 Years\r\nPerformer                                : Lukas Graham\r\nPublisher                                : MeRaDil\r\nGenre                                    : Pop\r\nContentType                              : Music Video\r\nRecorded date                            : 2015\r\nWriting application                      : Lavf56.32.100/MeRaDil\r\nCover                                    : Yes\r\nRating                                   : ***\r\nReleasedate                              : Denmark - december 15 - 2015\r\n \nhttp://gifyu.com/images/7years-lukas.png\r\n\r\nVideo\r\nID                                       : 1\r\nFormat                                   : AVC\r\nFormat/Info                              : Advanced Video Codec\r\nFormat profile                           :   \r\nFormat settings, CABAC                   : Yes\r\nFormat settings, ReFrames                : 3 frames\r\nCodec ID                                 : avc1\r\nCodec ID/Info                            : Advanced Video Coding\r\nDuration                                 : 3mn 59s\r\nBit rate                                 : 2 269 Kbps\r\nWidth                                    : 1 920 pixels\r\nHeight                                   : 1 036 pixels\r\nDisplay aspect ratio                     : 1.85:1\r\nFrame rate mode                          : Variable\r\nFrame rate                               : 23.976 (24000/1001) fps\r\nColor space                              : YUV\r\nChroma subsampling                       : 4:2:0\r\nBit depth                                : 8 bits\r\nScan type                                : Progressive\r\nBits/(Pixel*Frame)                       : 0.048\r\nStream size                              : 64.7 MiB (89%)\r\n\r\nAudio\r\nID                                       : 2\r\nFormat                                   : AAC\r\nFormat/Info                              : Advanced Audio Codec\r\nFormat profile                           : LC\r\nCodec ID                                 : 40\r\nDuration                                 : 3mn 59s\r\nBit rate mode                            : Constant\r\nBit rate                                 : 256 Kbps\r\nChannel(s)                               : 2 channels\r\nChannel positions                        : Front: L R\r\nSampling rate                            : 44.1 KHz\r\nFrame rate                               : 43.066 fps (1024 spf)\r\nCompression mode                         : Lossy\r\nStream size                              : 7.30 MiB (10%)","torrent":{"xt":"urn:btih:0fe386f7a0fe8e05cdf7d24d57fb110bcd08919f","amp;dn":"Lukas+Graham+-+7+Years+%282015+Pop%29","amp;tr":["udp%3A%2F%2Ftracker.leechers-paradise.org%3A6969","udp%3A%2F%2Fzer0day.ch%3A1337","udp%3A%2F%2Fopen.demonii.com%3A1337","udp%3A%2F%2Ftracker.coppersurfer.tk%3A6969","udp%3A%2F%2Fexodus.desync.com%3A6969"],"infoHash":"0fe386f7a0fe8e05cdf7d24d57fb110bcd08919f","infoHashBuffer":{"type":"Buffer","data":[15,227,134,247,160,254,142,5,205,247,210,77,87,251,17,11,205,8,145,159]},"announce":[],"urlList":[]}}